<?xml version="1.0" encoding="UTF-8"?>
<svg width="48px" height="48px" viewBox="0 0 48 48" version="1.1" xmlns="http://www.w3.org/2000/svg" xmlns:xlink="http://www.w3.org/1999/xlink">
    <title>48 x 48 / dark outline</title>
    <defs>
        <rect id="path-1" x="0" y="0" width="48" height="48" rx="12"></rect>
        <linearGradient x1="50%" y1="0%" x2="50%" y2="100%" id="linearGradient-3">
            <stop stop-color="#E98D27" offset="0%"></stop>
            <stop stop-color="#CC3D11" offset="100%"></stop>
        </linearGradient>
        <rect id="path-4" x="0" y="0" width="48" height="48" rx="12"></rect>
    </defs>
    <g id="48-x-48-/-dark-outline" stroke="none" stroke-width="1" fill="none" fill-rule="evenodd">
        <g id="Icon-Artboard">
            <mask id="mask-2" fill="white">
                <use xlink:href="#path-1"></use>
            </mask>
            <g id="Mask"></g>
            <g id="Group" mask="url(#mask-2)">
                <g id="Icon-Artboard">
                    <g id="BG-style-(-Change-background-colour-)" fill="url(#linearGradient-3)">
                        <rect id="BG" x="0" y="0" width="48" height="48"></rect>
                    </g>
                    <g id="bee-icon" transform="translate(7.593750, 9.234375)" fill="#FFFFFF" fill-rule="nonzero">
                        <path d="M32.7067718,8.89693427 C32.3752651,8.46667441 31.8381404,8.2525939 31.0681218,8.2525939 C30.3337717,8.2525939 29.3854109,8.44778496 28.1999599,8.8402659 C24.6897661,10.0009181 22.8895592,11.3315754 21.5761214,12.303333 C21.0494875,12.6916163 20.6130737,13.0148359 20.178758,13.245707 C20.1137155,12.4418557 19.813681,11.654795 19.2954396,11.0377394 C19.0058959,10.687235 18.6471134,10.393399 18.2505643,10.1835162 C18.3407844,10.0743771 18.4184157,9.95474386 18.4771638,9.82671532 C18.4981452,9.78054109 18.5149303,9.73436687 18.5317155,9.68609381 C18.5422062,9.68399498 18.5547951,9.68189615 18.5652858,9.67769849 C18.9513441,9.54757112 19.0730365,8.90952724 18.8422407,8.22740796 C18.7373335,7.9146825 18.5715802,7.63973596 18.3806492,7.45503905 C18.2127977,7.29342925 18.0365537,7.21367376 17.8728985,7.21997025 C17.6840656,7.02687802 17.4637605,6.86107057 17.2203759,6.74773382 C17.3001053,6.34475874 17.4176014,5.91449888 17.5749621,5.44436129 C17.8057579,4.7769338 18.0932035,4.10950632 18.4331027,3.46306713 C18.8065723,2.75786073 19.1863362,2.16599107 19.593376,1.64967925 C19.8409569,1.33905262 20.0780471,1.08509437 20.3193336,0.873112681 C20.6193681,0.606561454 20.9026174,0.434457512 21.1837686,0.346306713 C21.2802832,0.316923113 21.3327368,0.21827817 21.305461,0.125929714 C21.2823814,0.052470714 21.2131426,0 21.1376095,0 C21.1208243,0 21.1040392,0.00209882856 21.087254,0.00839531424 C20.749453,0.109139085 20.4305352,0.295934827 20.0801453,0.596067311 C19.8199755,0.818543139 19.564002,1.08509437 19.2975378,1.41041279 C18.8653203,1.93931759 18.4645749,2.54797787 18.0701239,3.2699749 C17.7113414,3.93110589 17.4050125,4.61322518 17.1574316,5.29954212 C16.9895801,5.77387737 16.8657897,6.20413723 16.7776677,6.60921114 C16.7566862,6.60501348 16.7357048,6.60081582 16.7147234,6.59661817 C16.5573626,6.57772871 16.3979037,6.5840252 16.240543,6.60921114 C16.152421,6.20413723 16.0286305,5.77387737 15.860779,5.29954212 C15.6131981,4.61322518 15.3068692,3.93110589 14.9480867,3.2699749 C14.5536357,2.54797787 14.1507922,1.93931759 13.7206728,1.41041279 C13.4542086,1.08719319 13.1982352,0.820641967 12.9380654,0.596067311 C12.5897736,0.295934827 12.2687577,0.109139085 11.9309566,0.00839531424 C11.9141714,0.00419765712 11.8973863,0 11.8806011,0 L11.8806011,0 C11.8029698,0 11.7358293,0.0503718855 11.7127497,0.123830885 C11.6833757,0.216179342 11.7358293,0.314824284 11.8281476,0.344207884 C12.1134951,0.434457512 12.3967444,0.606561454 12.6967789,0.873112681 C12.9380654,1.08509437 13.1751556,1.33905262 13.4227365,1.64967925 C13.8318744,2.16599107 14.2116384,2.75995956 14.5830097,3.46306713 C14.9208108,4.10950632 15.2103546,4.7769338 15.4411504,5.44436129 C15.6006093,5.91449888 15.7181053,6.34475874 15.7978347,6.74773382 C15.5838241,6.84847759 15.3845005,6.98280262 15.2145509,7.14651125 C15.1914713,7.16959836 15.1683917,7.19478431 15.1453122,7.21787142 C14.9795588,7.21157493 14.8033148,7.29133042 14.6354633,7.45294022 C14.4424341,7.63763713 14.278779,7.91258367 14.1738718,8.22530913 C13.943076,8.90952724 14.0647683,9.54547229 14.4508267,9.67559967 C14.4613174,9.67979732 14.4718081,9.68189615 14.4822989,9.68399498 C14.5494395,9.86659306 14.645954,10.038697 14.7697445,10.1877138 C14.3396251,10.4143873 13.9535667,10.7355081 13.6514341,11.1237914 C13.1688611,11.7324517 12.8877099,12.4943264 12.8289619,13.2729918 C12.3778611,13.0400218 11.9246622,12.7063081 11.3770467,12.3012342 C10.063609,11.3294766 8.2655002,9.99881926 4.75320828,8.83816707 C3.5677573,8.44568613 2.62149466,8.25049507 1.88504635,8.25049507 C1.11502775,8.25049507 0.577903062,8.46457559 0.246396417,8.89483544 C-0.37675215,9.70078561 0.26737785,11.0503324 1.22622935,11.9675205 C1.60809143,12.3327166 2.02142567,12.6664304 2.38650261,12.9602664 C2.84389785,13.3296602 3.15232492,13.5857173 3.3159801,13.797699 C3.3306671,13.8165884 3.3306671,13.8144896 3.34535411,13.8354779 C4.11117642,13.3023754 5.27984225,12.9371792 6.19463274,12.8868074 C6.79260359,12.8532261 10.0531183,12.8112495 12.8142749,13.5185548 C12.8142749,13.5185548 12.8142749,13.5206536 12.8142749,13.5206536 C12.8142749,13.5962114 12.8163731,13.6717692 12.8205694,13.7473271 C10.8441183,13.245707 8.60330127,13.1596551 7.31294313,13.1596551 C6.6625187,13.1596551 6.25338075,13.1806434 6.23869375,13.1827422 C5.27984225,13.2373117 4.16153186,13.5962114 3.45026127,14.1167209 C3.39151326,14.1586975 3.33696153,14.2027729 3.28450795,14.2489471 C3.22575994,14.299319 3.17120821,14.3496909 3.12085277,14.4021616 C2.95090316,14.5763644 2.8271127,14.7631601 2.76836469,14.96045 C2.61939652,15.4641688 2.91733287,15.9909748 3.64958489,16.5240773 C5.43930114,17.825351 8.26130391,18.3542558 10.5231024,16.6059316 C11.3455746,15.9720853 12.0190786,15.4830583 12.5541052,15.1325539 C12.7198585,15.0234148 12.8730229,14.9289676 13.0115004,14.8471132 C13.1415853,15.2395942 13.3241238,15.6152845 13.5696065,15.9448006 C13.7605376,16.2071541 13.987137,16.4443218 14.2410124,16.6437105 C13.9535667,16.9606336 13.6871025,17.3342251 13.4374235,17.7707814 C13.2527869,18.0960999 13.0870336,18.4529007 12.9296728,18.8600734 C12.8268638,19.1287235 12.7429381,19.3763853 12.6716012,19.6198494 L12.6653067,19.6471342 C12.5541052,20.0312198 12.4680813,20.4383925 12.4093333,20.8539606 C12.3694685,21.131006 12.3442908,21.3660747 12.331702,21.5885506 C12.3296038,21.6158353 12.3296038,21.6431201 12.3275057,21.6704049 L12.3254075,21.7102826 C12.3128187,22.0439964 12.3254075,22.3378324 12.3631741,22.6085813 C12.3778611,22.7135227 12.3967444,22.8163653 12.4177258,22.9192079 C12.4617868,23.1416837 12.5205349,23.3683572 12.5939699,23.5950307 C12.6170495,23.6705885 12.6464235,23.7461463 12.6736993,23.8196053 L12.698877,23.8867679 C12.8457471,24.2876441 13.0387763,24.6948168 13.269572,25.0998908 L13.2905535,25.1376697 C13.3388108,25.2237216 13.3891662,25.3097736 13.4416198,25.3958256 C13.5863917,25.6287956 13.7479487,25.868062 13.9262909,26.1094273 C14.1591848,26.4263504 14.3899806,26.7054946 14.631267,26.9636505 C14.8159037,27.1609404 15.0634846,27.4190963 15.3467339,27.6499675 C15.5901185,27.8451585 15.8775642,28.0613379 16.225856,28.1767734 C16.3076836,28.206157 16.3979037,28.21875 16.490222,28.21875 C16.6014236,28.21875 16.7147234,28.1977617 16.8175324,28.157884 C16.9706968,28.1033144 17.119665,28.0277566 17.2854183,27.9165187 C17.5309011,27.7570077 17.7679913,27.5597178 18.0575351,27.2784748 C18.4142195,26.9258716 18.7478242,26.541786 19.052055,26.1346132 C19.1422752,26.0128812 19.2303972,25.8890503 19.3164211,25.7631206 C19.4569967,25.5553366 19.593376,25.3328607 19.7339516,25.085199 C19.9479622,24.7095086 20.1179118,24.3611031 20.2542911,24.0168952 L20.2878614,23.9245468 C20.4179463,23.5761412 20.5165591,23.2340322 20.5795034,22.9045161 C20.6382514,22.6022848 20.6718217,22.3189429 20.676018,22.0376999 C20.676018,21.9663397 20.6739198,21.8970784 20.6697235,21.827817 L20.6676254,21.7501604 C20.6571347,21.4479291 20.6298588,21.1415001 20.5857978,20.8413676 C20.5291479,20.4530843 20.4473203,20.0668999 20.3424132,19.6912096 C20.2647819,19.416263 20.1703654,19.1329212 20.061262,18.853777 C19.9605511,18.595621 19.8661346,18.3731452 19.76962,18.1716577 C19.4800763,17.5839857 19.140177,17.0718715 18.7562168,16.6458093 C19.0352699,16.4275311 19.2870471,16.1672764 19.490567,15.8734404 C19.7066757,15.5691103 19.8682328,15.2311989 19.9878269,14.8764968 C20.1137155,14.9520547 20.2479967,15.0360078 20.3948667,15.1304551 C20.9298933,15.4809595 21.6054954,15.9678877 22.4258695,16.6038327 C24.6897661,18.3521569 27.5096708,17.8211533 29.299387,16.5219784 C30.0337372,15.988876 30.3295754,15.4641688 30.1806072,14.9583512 C30.1239573,14.7610613 29.9980687,14.5742655 29.8281191,14.4000628 C29.7777637,14.347592 29.723212,14.2972202 29.664464,14.2468483 C29.6120104,14.2027729 29.5574586,14.1586975 29.4987106,14.1146221 C28.78744,13.5941126 27.6670315,13.2352129 26.7102782,13.1806434 C26.6955911,13.1806434 26.2864532,13.1575562 25.6360288,13.1575562 C24.3582595,13.1575562 22.1531109,13.2415094 20.1913468,13.7284376 C20.193445,13.6528798 20.193445,13.577322 20.1913468,13.5017641 C22.9399146,12.8091507 26.1605646,12.8511273 26.7543392,12.8847085 C27.6691297,12.9350804 28.8419918,13.2981778 29.6078141,13.8312802 C29.6183048,13.8165884 29.6266974,13.8060943 29.6350899,13.7956001 C29.796647,13.5836184 30.1071722,13.3275614 30.5645674,12.9581675 C30.9296444,12.6643315 31.3429786,12.3306178 31.7248407,11.9654216 C32.6857903,11.0524312 33.3299203,9.70288444 32.7067718,8.89693427 Z M17.6043361,7.83282819 C17.6358083,7.6355383 17.7134396,7.5033121 17.8204449,7.46763202 C17.8414263,7.46133553 17.8645059,7.45713788 17.8875855,7.45713788 C17.9736094,7.45713788 18.0764184,7.50750976 18.1792274,7.59566056 C18.1918163,7.6061547 18.2044051,7.61455002 18.2148958,7.62714299 C18.3806492,7.78665396 18.5233229,8.02592042 18.6156412,8.30506462 C18.7667075,8.7521151 18.7394317,9.14249721 18.6219356,9.33558944 C18.5862672,9.39435664 18.5401081,9.43633321 18.4897526,9.45312384 C18.2715457,9.52658284 17.8917818,9.20126441 17.6945563,8.61569124 C17.6001398,8.33654704 17.5686677,8.05950167 17.6043361,7.83282819 Z M14.5200654,9.45102501 C14.4676119,9.43423438 14.4235509,9.39225781 14.3878824,9.33139178 C14.2703864,9.13829955 14.2431105,8.74791744 14.3941768,8.30296579 C14.4885933,8.02592042 14.6291689,7.78455513 14.7949222,7.62504416 C14.8075111,7.61455002 14.8180018,7.6061547 14.8305907,7.59566056 C14.9606755,7.48232382 15.0907604,7.43195193 15.1893732,7.46553319 C15.2963785,7.50121328 15.3761079,7.6355383 15.4054819,7.83072936 C15.4411504,8.05740284 15.4075801,8.33444821 15.3152618,8.61359241 C15.1201344,9.19916558 14.7382724,9.52448401 14.5200654,9.45102501 Z M20.355002,20.898036 C20.3948667,21.1834767 20.4221426,21.473115 20.4305352,21.7606545 L20.4326333,21.7921369 C19.5723946,22.0293046 18.1792274,22.3252394 16.5762459,22.3252394 C14.8746517,22.3252394 13.4080495,21.9915257 12.566694,21.7501604 C12.566694,21.7396662 12.566694,21.7312709 12.566694,21.7228756 L12.5687922,21.680899 C12.5687922,21.6557131 12.5708903,21.6305271 12.5708903,21.6053412 C12.5834792,21.3933595 12.6065587,21.1708837 12.6443253,20.9064313 C13.4269328,21.1352036 14.8410814,21.4668185 16.4881239,21.4668185 C18.1519515,21.4668185 19.578689,21.1268083 20.355002,20.898036 Z M19.1191956,25.6329932 C19.0352699,25.7568241 18.949246,25.8764573 18.861124,25.9960906 C18.8359463,26.0296718 18.8086704,26.0632531 18.7813945,26.0989332 C18.1267738,26.2059734 17.3777367,26.2857289 16.5741478,26.2857289 C15.699222,26.2857289 14.8872405,26.1933804 14.1948532,26.0695496 C14.1696755,26.0359683 14.1444978,26.0044859 14.1193201,25.9688058 C13.9451742,25.7316382 13.7857153,25.4986682 13.6451397,25.2698959 C13.605275,25.206931 13.5696065,25.1418673 13.5318399,25.0768036 C14.308153,25.2573029 15.3404395,25.427308 16.490222,25.427308 C17.6525934,25.427308 18.6911744,25.2531052 19.4716837,25.0705072 C19.3520895,25.2740935 19.2366916,25.4587904 19.1191956,25.6329932 Z M20.0654582,23.8447913 L20.0360842,23.9245468 C19.1905325,24.1428249 17.9631186,24.3736961 16.5762459,24.3736961 C15.099153,24.3736961 13.8025004,24.1092437 12.9548505,23.8825702 C12.9443598,23.8573843 12.9338691,23.8300995 12.9233784,23.8049135 L12.8982007,23.737751 C12.8709248,23.6663909 12.8457471,23.5971295 12.8226675,23.5236705 C12.7597232,23.3263806 12.7093678,23.1311896 12.6674049,22.9359985 C13.4164421,23.1647708 14.8326888,23.517374 16.490222,23.517374 C18.1624423,23.517374 19.5891797,23.1605732 20.3340206,22.929702 C20.2710763,23.2256369 20.1808561,23.5320658 20.0654582,23.8447913 Z M20.1158137,19.7583721 C20.1158137,19.7604709 20.1179118,19.7625697 20.1179118,19.7646686 C20.1116174,19.7667674 20.1074211,19.7688662 20.1011267,19.770965 C19.3541877,20.0123303 18.0659277,20.3397476 16.5762459,20.3397476 C14.9753625,20.3397476 13.6094712,19.9619584 12.8961025,19.7184943 C12.8961025,19.7163955 12.8961025,19.7163955 12.8961025,19.7142967 L12.9023969,19.6870119 C12.9716357,19.4498443 13.0555614,19.2063802 13.1562723,18.9440266 C13.1562723,18.9419278 13.1583704,18.9398289 13.1583704,18.9377301 C13.8612484,19.1665024 15.0823679,19.4792279 16.4986146,19.4792279 C17.8624078,19.4792279 19.0478587,19.1874907 19.7612275,18.962916 C19.7885033,18.9545207 19.8157792,18.9461254 19.8409569,18.9377301 C19.8409569,18.9398289 19.8409569,18.9398289 19.8430551,18.9419278 C19.9479622,19.2147755 20.0381824,19.489722 20.1158137,19.7583721 Z" id="Shape"></path>
                    </g>
                </g>
            </g>
            <mask id="mask-5" fill="white">
                <use xlink:href="#path-4"></use>
            </mask>
            <rect stroke-opacity="0.2" stroke="#000000" x="0.5" y="0.5" width="47" height="47" rx="12"></rect>
        </g>
    </g>
</svg>