<svg id="Layer_1" data-name="Layer 1" xmlns="http://www.w3.org/2000/svg" width="48px" height="48px" xmlns:xlink="http://www.w3.org/1999/xlink" viewBox="0 0 48 48"><defs><style>.cls-1,.cls-5{fill:none;}.cls-2{clip-path:url(#clip-path);}.cls-3{fill:url(#linear-gradient);}.cls-4{fill:#fff;}.cls-5{stroke:#000;stroke-opacity:0.2;}</style><clipPath id="clip-path"><rect id="Mask" class="cls-1" width="48" height="48" rx="12.61"/></clipPath><linearGradient id="linear-gradient" x1="-934.06" y1="564.5" x2="-934.06" y2="564.45" gradientTransform="matrix(1024, 0, 0, -1024, 956505, 578045)" gradientUnits="userSpaceOnUse"><stop offset="0" stop-color="#e98d27"/><stop offset="1" stop-color="#cc3d11"/></linearGradient></defs><g class="cls-2"><g id="Icon-Artboard"><g id="BG-style-_-Change-background-colour-_" data-name="BG-style-(-Change-background-colour-)"><rect id="BG" class="cls-3" width="48" height="48"/></g><g id="bee-icon"><path id="Shape" class="cls-4" d="M38.4,30.63a1.94,1.94,0,0,0-.84-1.55A9.48,9.48,0,0,0,35,27.69a21.07,21.07,0,0,0-7.3-1.61A12.16,12.16,0,0,1,26,25.91a3.94,3.94,0,0,0,.74-2.26,3.53,3.53,0,0,0-.25-1.33,1.7,1.7,0,0,0,.4-.13l.13-.07,0,0c.38.14.88-.27,1.14-.94a1.91,1.91,0,0,0,.14-.89.72.72,0,0,0-.23-.5,2.56,2.56,0,0,0-.2-.78A9.32,9.32,0,0,1,29,18.26a13.39,13.39,0,0,1,1.93-1,11.6,11.6,0,0,1,2-.64,6.23,6.23,0,0,1,1.06-.13,2.48,2.48,0,0,1,1,.15.17.17,0,0,0,.23-.09.18.18,0,0,0,0-.2l0,0a2.79,2.79,0,0,0-1.15-.2,6.8,6.8,0,0,0-1.12.12,12,12,0,0,0-2.13.64,13.8,13.8,0,0,0-2,1,9.64,9.64,0,0,0-1.13.76l0-.05a1.74,1.74,0,0,0-.37-.3A12.56,12.56,0,0,0,27.81,17a14.66,14.66,0,0,0,.6-2.14,11.48,11.48,0,0,0,.26-2.21,6.53,6.53,0,0,0-.08-1.13,2.8,2.8,0,0,0-.39-1.1l0,0h0a.18.18,0,0,0-.21,0,.18.18,0,0,0-.06.24,2.52,2.52,0,0,1,.33,1,5.83,5.83,0,0,1,.06,1.06A11.45,11.45,0,0,1,28,14.81a13.79,13.79,0,0,1-.62,2.07,9.53,9.53,0,0,1-.56,1.23,2.38,2.38,0,0,0-.7-.07H26a.76.76,0,0,0-.54-.15,2,2,0,0,0-.85.3c-.62.38-.94.94-.72,1.29,0,0,0,0,0,0a1.8,1.8,0,0,0-.1.57,3.42,3.42,0,0,0-1.46,0,4,4,0,0,0-2,1.12,10.77,10.77,0,0,1-.49-1.68A21.09,21.09,0,0,0,17,12.61a9.51,9.51,0,0,0-1.81-2.29,1.94,1.94,0,0,0-1.67-.56c-1,.22-1.37,1.67-1.23,3,.06.53.16,1,.25,1.51a6,6,0,0,1,.18,1.24.11.11,0,0,1,0,0,6,6,0,0,1,2.8,1.1,26,26,0,0,1,4.66,4.74h0l-.14.18a23.93,23.93,0,0,0-3.84-4c-.5-.42-.83-.67-.84-.67a5.61,5.61,0,0,0-2.74-1.08h-.21l-.22,0a1.27,1.27,0,0,0-.63.2c-.44.29-.55.88-.33,1.76a5.71,5.71,0,0,0,5.21,4.48c1,.05,1.87.1,2.5.18l.54.08a3.76,3.76,0,0,0-.28,1.19,3.47,3.47,0,0,0,.07,1,6,6,0,0,0-1.34.35,8.08,8.08,0,0,0-1.09.51c-.26.14-.48.27-.69.41l0,0a8.51,8.51,0,0,0-1,.76l-.54.51-.05.06,0,0a6.23,6.23,0,0,0-.55.71l-.15.28a6.09,6.09,0,0,0-.3.63,2,2,0,0,0-.09.22l0,.07a7.27,7.27,0,0,0-.34,1.3v0a2.5,2.5,0,0,0-.05.29c0,.27-.07.56-.09.86a8.28,8.28,0,0,0,0,1.11,7.93,7.93,0,0,0,.11,1,2.86,2.86,0,0,0,.33,1,.7.7,0,0,0,.18.2.77.77,0,0,0,.29.17,1.83,1.83,0,0,0,.51.11,4.67,4.67,0,0,0,1,0,9.56,9.56,0,0,0,1.5-.24l.44-.11c.24-.07.49-.15.76-.25a9.17,9.17,0,0,0,1.08-.48l.09-.05a7.52,7.52,0,0,0,.88-.6,5.16,5.16,0,0,0,.63-.6l.13-.16.05-.07c.18-.23.36-.49.52-.74A11.53,11.53,0,0,0,22,31a7.34,7.34,0,0,0,.32-.82c.09-.27.16-.5.22-.71a7,7,0,0,0,.2-1.82,3.75,3.75,0,0,0,1.06-.12,3.87,3.87,0,0,0,1-.45c.05.14.1.29.15.46.19.61.39,1.42.61,2.43a5.72,5.72,0,0,0,5.32,4.36c.9.06,1.47-.15,1.68-.63a1.4,1.4,0,0,0,.09-.66l0-.22a1.55,1.55,0,0,0,0-.21,5.68,5.68,0,0,0-1.54-2.51s-.31-.29-.8-.7a24,24,0,0,0-4.54-3.07,1.15,1.15,0,0,0,.14-.17,26.47,26.47,0,0,1,5.43,3.75,6,6,0,0,1,1.58,2.56h0a6.05,6.05,0,0,1,1.25,0c.47,0,1,0,1.53,0C37,32.26,38.36,31.65,38.4,30.63ZM27.52,20.1a.42.42,0,0,1,.4-.14.1.1,0,0,1,0,0,.44.44,0,0,1,.14.29s0,0,0,.05a1.75,1.75,0,0,1-.13.78,1.33,1.33,0,0,1-.66.79.28.28,0,0,1-.18,0c-.21-.08-.29-.57-.07-1.15A1.78,1.78,0,0,1,27.52,20.1Zm-3.41-.74a.27.27,0,0,1,0-.18,1.3,1.3,0,0,1,.66-.78,1.69,1.69,0,0,1,.75-.26h0c.18,0,.31,0,.36.13a.41.41,0,0,1-.07.42,1.65,1.65,0,0,1-.57.54C24.73,19.55,24.23,19.56,24.11,19.36ZM21.22,31.88a6.89,6.89,0,0,1-.49.71l0,0a15.23,15.23,0,0,1-3.3-2.07,15.31,15.31,0,0,1-2.7-3l0,0,0,0,.05-.06a5.88,5.88,0,0,1,.5-.49,14.06,14.06,0,0,0,2.59,2.9A13.81,13.81,0,0,0,21.22,31.88Zm-4,2.83-.43.12-.12,0a14,14,0,0,1-1.81-1.27,12.84,12.84,0,0,1-1.69-1.7.49.49,0,0,1,0-.12c0-.3,0-.58.08-.84,0-.08,0-.15,0-.22a13.62,13.62,0,0,0,2,2.17,13.29,13.29,0,0,0,2.52,1.64A6.61,6.61,0,0,1,17.23,34.71ZM19.11,34,19,34a13.68,13.68,0,0,1-5.39-4.58s0-.05,0-.08l0-.07a1.8,1.8,0,0,1,.08-.21A5.52,5.52,0,0,1,14,28.5a12.84,12.84,0,0,0,5.87,4.92A5.72,5.72,0,0,1,19.11,34Zm2.66-3.1h0A11.6,11.6,0,0,1,18.69,29a11.38,11.38,0,0,1-2.42-2.84h0l0,0c.21-.13.43-.27.68-.4h0a11.28,11.28,0,0,0,2.21,2.57A11.49,11.49,0,0,0,22,30l.08,0h0A8.33,8.33,0,0,1,21.77,30.85Z"/></g></g></g><rect class="cls-5" x="0.5" y="0.5" width="47" height="47" rx="12"/></svg>