<?xml version="1.0" encoding="UTF-8"?>
<svg xmlns="http://www.w3.org/2000/svg" width="48" height="48">
  <defs>
    <clipPath id="A">
      <rect width="48" height="48" rx="12.61" fill="none"></rect>
    </clipPath>
    <linearGradient id="B" x1="27.56" y1="-3" x2="27.56" y2="48.2" gradientUnits="userSpaceOnUse">
      <stop offset="0" stop-color="#e98d27"></stop>
      <stop offset="1" stop-color="#cc3d11"></stop>
    </linearGradient>
  </defs>
  <g clip-path="url(#A)">
    <path d="M0 0h48v48H0z" fill="url(#B)"></path>
    <path d="M38.4 30.63a1.94 1.94 0 0 0-.84-1.55A9.48 9.48 0 0 0 35 27.69a21.07 21.07 0 0 0-7.3-1.61 12.16 12.16 0 0 1-1.7-.17 3.94 3.94 0 0 0 .74-2.26 3.53 3.53 0 0 0-.25-1.33 1.7 1.7 0 0 0 .4-.13l.13-.07h0c.38.14.88-.27 1.14-.94a1.91 1.91 0 0 0 .14-.89.72.72 0 0 0-.23-.5 2.56 2.56 0 0 0-.2-.78 9.32 9.32 0 0 1 1.13-.75 13.39 13.39 0 0 1 1.93-1 11.6 11.6 0 0 1 2-.64 6.23 6.23 0 0 1 1.06-.13 2.48 2.48 0 0 1 1 .15.17.17 0 0 0 .23-.09.18.18 0 0 0 0-.2h0a2.79 2.79 0 0 0-1.15-.2 6.8 6.8 0 0 0-1.12.12 12 12 0 0 0-2.13.64 13.8 13.8 0 0 0-2 1 9.64 9.64 0 0 0-1.13.76v-.05a1.74 1.74 0 0 0-.37-.3 12.56 12.56 0 0 0 .49-1.32 14.66 14.66 0 0 0 .6-2.14 11.48 11.48 0 0 0 .26-2.21 6.53 6.53 0 0 0-.08-1.13 2.8 2.8 0 0 0-.39-1.1h0 0a.18.18 0 0 0-.21 0 .18.18 0 0 0-.06.24 2.52 2.52 0 0 1 .33 1 5.83 5.83 0 0 1 .06 1.06 11.45 11.45 0 0 1-.32 2.09 13.79 13.79 0 0 1-.62 2.07 9.53 9.53 0 0 1-.56 1.23 2.38 2.38 0 0 0-.7-.07H26a.76.76 0 0 0-.54-.15 2 2 0 0 0-.85.3c-.62.38-.94.94-.72 1.29a1.8 1.8 0 0 0-.1.57 3.42 3.42 0 0 0-1.46 0 4 4 0 0 0-2 1.12 10.77 10.77 0 0 1-.49-1.68A21.09 21.09 0 0 0 17 12.61a9.51 9.51 0 0 0-1.81-2.29 1.94 1.94 0 0 0-1.67-.56c-1 .22-1.37 1.67-1.23 3 .06.53.16 1 .25 1.51a6 6 0 0 1 .18 1.24.11.11 0 0 1 0 0 6 6 0 0 1 2.8 1.1 26 26 0 0 1 4.66 4.74h0l-.14.18a23.93 23.93 0 0 0-3.84-4l-.84-.67a5.61 5.61 0 0 0-2.74-1.08h-.21-.22a1.27 1.27 0 0 0-.63.2c-.44.29-.55.88-.33 1.76a5.71 5.71 0 0 0 5.21 4.48l2.5.18.54.08a3.76 3.76 0 0 0-.28 1.19 3.47 3.47 0 0 0 .07 1 6 6 0 0 0-1.34.35 8.08 8.08 0 0 0-1.09.51l-.69.41h0a8.51 8.51 0 0 0-1 .76l-.54.51-.05.06h0a6.23 6.23 0 0 0-.55.71l-.15.28a6.09 6.09 0 0 0-.3.63 2 2 0 0 0-.09.22v.07a7.27 7.27 0 0 0-.34 1.3h0a2.5 2.5 0 0 0-.05.29c0 .27-.07.56-.09.86a8.28 8.28 0 0 0 0 1.11 7.93 7.93 0 0 0 .11 1 2.86 2.86 0 0 0 .33 1 .7.7 0 0 0 .18.2.77.77 0 0 0 .29.17 1.83 1.83 0 0 0 .51.11 4.67 4.67 0 0 0 1 0 9.56 9.56 0 0 0 1.5-.24l.44-.11.76-.25a9.17 9.17 0 0 0 1.08-.48l.09-.05a7.52 7.52 0 0 0 .88-.6 5.16 5.16 0 0 0 .63-.6l.13-.16.05-.07a9.79 9.79 0 0 0 .52-.74A11.53 11.53 0 0 0 22 31a7.34 7.34 0 0 0 .32-.82l.22-.71a7 7 0 0 0 .2-1.82 3.75 3.75 0 0 0 1.06-.12 3.87 3.87 0 0 0 1-.45l.15.46c.19.61.39 1.42.61 2.43a5.72 5.72 0 0 0 5.32 4.36c.9.06 1.47-.15 1.68-.63a1.4 1.4 0 0 0 .09-.66v-.22a1.55 1.55 0 0 0 0-.21 5.68 5.68 0 0 0-1.54-2.51l-.8-.7a24 24 0 0 0-4.54-3.07 1.15 1.15 0 0 0 .14-.17 26.47 26.47 0 0 1 5.43 3.75 6 6 0 0 1 1.58 2.56h0a6.05 6.05 0 0 1 1.25 0h1.53c1.3-.21 2.66-.82 2.7-1.84zM27.52 20.1a.42.42 0 0 1 .4-.14.1.1 0 0 1 0 0 .44.44 0 0 1 .14.29v.05a1.75 1.75 0 0 1-.13.78 1.33 1.33 0 0 1-.66.79.28.28 0 0 1-.18 0c-.21-.08-.29-.57-.07-1.15a1.78 1.78 0 0 1 .5-.62zm-3.41-.74a.27.27 0 0 1 0-.18 1.3 1.3 0 0 1 .66-.78 1.69 1.69 0 0 1 .75-.26h0c.18 0 .31 0 .36.13a.41.41 0 0 1-.07.42 1.65 1.65 0 0 1-.57.54c-.51.32-1.01.33-1.13.13zm-2.89 12.52a6.89 6.89 0 0 1-.49.71h0a15.23 15.23 0 0 1-3.3-2.07 15.31 15.31 0 0 1-2.7-3h0 0l.05-.06a5.88 5.88 0 0 1 .5-.49 14.06 14.06 0 0 0 2.59 2.9 13.81 13.81 0 0 0 3.35 2.01zm-4 2.83l-.43.12h-.12a14 14 0 0 1-1.81-1.27 12.84 12.84 0 0 1-1.69-1.7.49.49 0 0 1 0-.12c0-.3 0-.58.08-.84v-.22a13.62 13.62 0 0 0 2 2.17 13.29 13.29 0 0 0 2.52 1.64 6.61 6.61 0 0 1-.54.22zm1.89-.71H19a13.68 13.68 0 0 1-5.39-4.58v-.08-.07a1.8 1.8 0 0 1 .08-.21 5.52 5.52 0 0 1 .31-.56 12.84 12.84 0 0 0 5.87 4.92 5.72 5.72 0 0 1-.76.58zm2.66-3.1h0a11.6 11.6 0 0 1-3.08-1.9 11.38 11.38 0 0 1-2.42-2.84h0 0l.68-.4h0a11.28 11.28 0 0 0 2.21 2.57A11.49 11.49 0 0 0 22 30h.08 0a8.33 8.33 0 0 1-.31.85z" fill="#fff"></path>
  </g>
  <rect x=".5" y=".5" width="47" height="47" rx="12" fill="none" stroke="#000" stroke-opacity=".2"></rect>
</svg>
