<svg xmlns="http://www.w3.org/2000/svg" viewBox="0 0 512 512"><path d="M485.14 182.44c-4.69-6.07-12.27-9.1-23.13-9.1-10.38 0-23.76 2.77-40.49 8.29C372 198 346.57 216.79 328 230.49c-7.43 5.49-13.6 10-19.72 13.29a55.63 55.63 0 0 0-12.48-31.14 48.88 48.88 0 0 0-14.76-12.06 24 24 0 0 0 3.2-5c.31-.65.54-1.31.78-2 .16 0 .32-.07.47-.12 5.44-1.83 7.15-10.83 3.9-20.47a27.43 27.43 0 0 0-6.52-10.91c-2.37-2.29-4.86-3.41-7.18-3.33a31.67 31.67 0 0 0-9.22-6.66 144.24 144.24 0 0 1 5-18.38 203 203 0 0 1 12.1-28A165.22 165.22 0 0 1 300 80.13a85.36 85.36 0 0 1 10.24-10.95c4.23-3.77 8.22-6.2 12.19-7.44a2.49 2.49 0 0 0-.67-4.88 2.44 2.44 0 0 0-.71.1c-4.77 1.43-9.28 4.06-14.21 8.29a90.62 90.62 0 0 0-11 11.49A170.29 170.29 0 0 0 278.47 103a210.2 210.2 0 0 0-12.87 28.65 151.49 151.49 0 0 0-5.37 18.49c-.3-.05-.59-.13-.9-.17a23.37 23.37 0 0 0-6.68.18 154.1 154.1 0 0 0-5.38-18.5A210.2 210.2 0 0 0 234.4 103a171 171 0 0 0-17.33-26.24 91.35 91.35 0 0 0-11-11.49c-4.93-4.23-9.44-6.86-14.2-8.29a2.44 2.44 0 0 0-.71-.1 2.49 2.49 0 0 0-.75 4.86c4 1.26 8 3.69 12.26 7.45a86.17 86.17 0 0 1 10.24 11 165 165 0 0 1 16.39 25.6 203.73 203.73 0 0 1 12.11 28 145.5 145.5 0 0 1 5 18.41 30.79 30.79 0 0 0-8.25 5.63c-.34.32-.65.67-1 1-2.32-.09-4.82 1-7.2 3.33a27.54 27.54 0 0 0-6.53 10.84c-3.25 9.64-1.54 18.64 3.9 20.47a4.35 4.35 0 0 0 .46.11 24.2 24.2 0 0 0 4.07 7.13 49 49 0 0 0-15.77 13.21 55.72 55.72 0 0 0-11.61 30.31c-6.37-3.27-12.76-8-20.51-13.72C165.43 216.79 140 198 90.48 181.63c-16.73-5.52-30.11-8.29-40.49-8.29-10.86 0-18.44 3-23.13 9.1-8.79 11.37.3 30.41 13.83 43.36 5.39 5.16 11.23 9.86 16.39 14 6.46 5.2 10.82 8.81 13.11 11.82a3.77 3.77 0 0 1 .42.53c10.8-7.54 27.32-12.68 40.24-13.4 8.43-.47 54.47-1.07 93.45 8.92 0 1.06 0 2.13.08 3.2-27.9-7.08-59.52-8.3-77.75-8.3-9.18 0-15 .3-15.16.31-13.52.76-29.32 5.84-39.37 13.17-.83.6-1.6 1.22-2.35 1.86s-1.59 1.41-2.3 2.15a19.68 19.68 0 0 0-5 7.88c-2.09 7.12 2.1 14.54 12.45 22.05 25.28 18.35 65.09 25.83 97 1.16 11.6-8.95 21.13-15.84 28.69-20.78 2.34-1.53 4.5-2.87 6.45-4A54.64 54.64 0 0 0 215 281.9a49.88 49.88 0 0 0 9.49 9.87 89.92 89.92 0 0 0-11.34 15.92 109 109 0 0 0-7.15 15.37c-1.45 3.78-2.65 7.29-3.66 10.72l-.1.39a125.57 125.57 0 0 0-3.62 17c-.57 3.92-.91 7.21-1.09 10.36v1.71A70 70 0 0 0 198 376c.2 1.47.46 2.93.76 4.39a88 88 0 0 0 2.47 9.53c.34 1.07.73 2.12 1.12 3.17l.36.94a114 114 0 0 0 8.05 17.11l.31.53c.69 1.22 1.39 2.44 2.13 3.63 2 3.28 4.33 6.68 6.84 10.08a132.87 132.87 0 0 0 10 12.07 105.63 105.63 0 0 0 10.1 9.69c3.44 2.75 7.51 5.82 12.43 7.45a11.44 11.44 0 0 0 3.73.6 12.82 12.82 0 0 0 4.62-.85 29.11 29.11 0 0 0 6.61-3.4 71.61 71.61 0 0 0 10.88-9 140.79 140.79 0 0 0 14-16.14c1.28-1.72 2.53-3.46 3.74-5.24 2-2.94 3.9-6.06 5.89-9.56a116.51 116.51 0 0 0 7.34-15.09l.48-1.3a94.39 94.39 0 0 0 4.14-14.43 69.25 69.25 0 0 0 1.36-12.24c0-1 0-2-.08-3v-1.11a119.9 119.9 0 0 0-1.21-12.83 127.34 127.34 0 0 0-3.44-16.24c-1.1-3.89-2.44-7.87-4-11.82-1.41-3.64-2.76-6.79-4.12-9.64a94.71 94.71 0 0 0-14.31-21.55 49.87 49.87 0 0 0 10.36-10.9 54.71 54.71 0 0 0 7-14.06c1.77 1.05 3.67 2.24 5.74 3.59 7.56 4.94 17.09 11.83 28.69 20.78 32 24.67 71.76 17.19 97-1.16 10.35-7.51 14.54-14.93 12.45-22.05a19.68 19.68 0 0 0-5-7.88c-.71-.74-1.48-1.45-2.3-2.15s-1.52-1.26-2.35-1.86c-10-7.33-25.85-12.41-39.37-13.17-.2 0-6-.31-15.16-.31-18 0-49.18 1.18-76.85 8.06v-3.21c38.8-9.77 84.27-9.18 92.64-8.71 12.92.72 29.47 5.83 40.28 13.36.14-.19.26-.35.38-.49 2.29-3 6.65-6.62 13.11-11.82 5.16-4.15 11-8.85 16.39-14 13.63-12.92 22.72-31.96 13.93-43.33zm-213.21-15c.43-2.77 1.55-4.65 3.07-5.17a2.89 2.89 0 0 1 .94-.15 6.78 6.78 0 0 1 4.11 2c.17.15.34.27.51.44a24 24 0 0 1 5.67 9.56c2.13 6.31 1.75 11.83.08 14.54a3.77 3.77 0 0 1-1.87 1.66c-3.07 1-8.45-3.56-11.23-11.82a24.18 24.18 0 0 1-1.28-11.09zm-43.52 22.85a3.7 3.7 0 0 1-1.88-1.68c-1.66-2.72-2-8.23.09-14.52a24.1 24.1 0 0 1 5.67-9.56c.17-.16.33-.27.5-.42 1.85-1.61 3.68-2.31 5.06-1.84s2.64 2.4 3.07 5.17a24 24 0 0 1-1.28 11c-2.78 8.26-8.15 12.85-11.23 11.82zm82.35 161.51a115.78 115.78 0 0 1 1.08 12.2v.44a201 201 0 0 1-111-.61v-.99-1.06c.17-3 .49-6.13 1-9.86a190 190 0 0 0 108.86-.09zm-17.44 66.82c-1.17 1.74-2.39 3.44-3.64 5.11-.36.49-.75 1-1.12 1.44a185.56 185.56 0 0 1-64.75-.42c-.36-.47-.72-.93-1.08-1.42-2.45-3.33-4.7-6.65-6.69-9.85-.55-.9-1.07-1.82-1.6-2.73a178.93 178.93 0 0 0 83.84-.08c-1.67 2.86-3.28 5.49-4.96 7.95zm13.35-25.24l-.41 1.14a191.56 191.56 0 0 1-100-.6c-.14-.37-.31-.74-.44-1.11l-.36-.95c-.37-1-.74-2-1.06-3a84.14 84.14 0 0 1-2.19-8.3 181.75 181.75 0 0 0 108.21-.08 89 89 0 0 1-3.75 12.9zm.71-57.66v.1l-.24.08a158.46 158.46 0 0 1-101.73-.74v-.05l.1-.37c1-3.35 2.15-6.77 3.57-10.48a.42.42 0 0 1 0-.1 149.27 149.27 0 0 0 93.19.36l1.14-.37v.05c1.59 3.85 2.9 7.72 3.97 11.52z" fill="#f26850"/></svg>
