<svg xmlns="http://www.w3.org/2000/svg" viewBox="0 0 200 110"><defs><style>.cls-1{fill:#ff674c}.cls-2{fill:#5b6883}</style></defs><path class="cls-1" d="M38.52 48.07H28.7V81.3H18.25V48.07H14.4v-4.71l3.85-1.1v-5.81c0-8.88 3.22-14.85 12.41-14.85a19.33 19.33 0 0 1 8.8 2.67l-1.34 4.48s-3.37-1.89-5.57-1.89c-2.67 0-3.85 1.42-3.85 10.76V42h9.82zM58.5 82.16c-11.78 0-18.3-7.46-18.3-20.5s6.52-20.5 18.3-20.5 18.38 7.46 18.38 20.5-7.07 20.5-18.38 20.5zm-7.07-20.58C51.43 73 53.31 77 58.5 77s7.07-4 7.07-15.32-1.89-15.26-7.07-15.26-7.07 3.93-7.07 15.16zM93.4 81.3H83V22.7l10.44-.63zM108.17 24.11a5.75 5.75 0 0 1 4 1.5 6.42 6.42 0 0 1 1.72 4.47 6.66 6.66 0 0 1-1.72 4.56 6.19 6.19 0 0 1-4 1.49 6.39 6.39 0 0 1-4.17-1.57 6.37 6.37 0 0 1-1.81-4.48 6.18 6.18 0 0 1 1.81-4.4 6 6 0 0 1 4.17-1.57zm5.18 57.19h-10.44V42h10.44zM137.73 82.16c-11.78 0-18.3-7.46-18.3-20.5s6.52-20.5 18.3-20.5 18.38 7.46 18.38 20.5-7.11 20.5-18.38 20.5zm-7.07-20.58c0 11.39 1.89 15.4 7.07 15.4s7.07-4 7.07-15.32-1.88-15.24-7.07-15.24-7.07 3.93-7.07 15.16z"/><path class="cls-2" d="M15.31 91h-.87v-.53h.87v-.59a2.16 2.16 0 0 1 .53-1.56 1.72 1.72 0 0 1 1.25-.46A2.38 2.38 0 0 1 18 88v.53a2.91 2.91 0 0 0-.89-.15c-.82 0-1.2.49-1.2 1.51v.58H18V91h-2.11v5.45h-.58zM19.09 94.1v-3.65h.57V94a1.83 1.83 0 0 0 1.9 2 2 2 0 0 0 2.07-2.13v-3.42h.58v6h-.58v-1.14a2.32 2.32 0 0 1-2.15 1.26 2.27 2.27 0 0 1-2.39-2.47zM26.7 94.89V91h-.86v-.53h.86v-1.93h.58v1.91h2.1V91h-2.1v3.85A1 1 0 0 0 28.47 96a2 2 0 0 0 .88-.21v.54a2.19 2.19 0 0 1-1 .21 1.53 1.53 0 0 1-1.65-1.65zM31 94.1v-3.65h.57V94a1.83 1.83 0 0 0 1.9 2 2.05 2.05 0 0 0 2.08-2.13v-3.42h.57v6h-.57v-1.14a2.34 2.34 0 0 1-2.16 1.26A2.28 2.28 0 0 1 31 94.1zM38.26 90.45h.58v1.7a2.82 2.82 0 0 1 2.64-1.8V91c-1.39 0-2.59 1-2.59 3v2.45h-.58zM42.25 93.45a2.94 2.94 0 0 1 2.83-3.12c1.68 0 2.74 1.36 2.74 3.13a1.69 1.69 0 0 1 0 .23h-5A2.37 2.37 0 0 0 45.2 96a2.67 2.67 0 0 0 2-.94l.4.35a3.14 3.14 0 0 1-2.47 1.13 3 3 0 0 1-2.88-3.09zm5-.29a2.21 2.21 0 0 0-2.14-2.32 2.32 2.32 0 0 0-2.2 2.32zM52.61 93.46a3.07 3.07 0 1 1 6.14 0 3.09 3.09 0 0 1-3.08 3.13 3.06 3.06 0 0 1-3.06-3.13zm5.52 0a2.51 2.51 0 0 0-2.46-2.59 2.46 2.46 0 0 0-2.44 2.56A2.51 2.51 0 0 0 55.69 96a2.47 2.47 0 0 0 2.44-2.54zM60.87 91H60v-.53h.87v-.59a2.16 2.16 0 0 1 .53-1.56 1.7 1.7 0 0 1 1.25-.46 2.41 2.41 0 0 1 .89.14v.53a2.91 2.91 0 0 0-.89-.15c-.82 0-1.21.49-1.21 1.51v.58h2.09V91h-2.09v5.45h-.57zM68.36 87.87h.57v8.56h-.57zM71.21 88.1h.71v.79h-.71zm.07 2.35h.57v6h-.57zM74.69 95.14v1.29h-.58v-8.56h.58v3.91a2.89 2.89 0 0 1 2.46-1.47 3 3 0 0 1 2.91 3.1 3 3 0 0 1-2.91 3.13 2.86 2.86 0 0 1-2.46-1.4zm4.75-1.68a2.41 2.41 0 0 0-2.35-2.58 2.51 2.51 0 0 0-2.44 2.57A2.51 2.51 0 0 0 77.09 96a2.34 2.34 0 0 0 2.35-2.54zM81.85 90.45h.58v1.7a2.82 2.82 0 0 1 2.64-1.8V91c-1.39 0-2.59 1-2.59 3v2.45h-.58zM85.75 94.69c0-1.24 1.07-2 2.62-2a7.31 7.31 0 0 1 2 .26v-.26a1.72 1.72 0 0 0-2-1.83 4 4 0 0 0-1.88.48l-.21-.5a4.88 4.88 0 0 1 2.12-.52 2.6 2.6 0 0 1 1.9.68 2.27 2.27 0 0 1 .61 1.69v3.73h-.56v-1a2.74 2.74 0 0 1-2.29 1.14 2.09 2.09 0 0 1-2.31-1.87zm4.61-.5v-.68a7.84 7.84 0 0 0-2-.27c-1.26 0-2 .56-2 1.39 0 .86.82 1.37 1.74 1.37a2 2 0 0 0 2.26-1.81zM93 90.45h.58v1.7a2.83 2.83 0 0 1 2.65-1.8V91h-.06c-1.39 0-2.59 1-2.59 3v2.45H93zM97.67 88.1h.72v.79h-.72zm.07 2.35h.58v6h-.58zM100.17 93.45a3 3 0 0 1 2.83-3.14 2.83 2.83 0 0 1 2.74 3.13 1.69 1.69 0 0 1 0 .23h-5a2.37 2.37 0 0 0 2.38 2.33 2.67 2.67 0 0 0 2-.94l.4.35a3.13 3.13 0 0 1-2.47 1.13 3 3 0 0 1-2.88-3.09zm5-.29a2.22 2.22 0 0 0-2.17-2.32 2.33 2.33 0 0 0-2.2 2.32zM106.91 95.68l.34-.46a3.52 3.52 0 0 0 2.14.78c.81 0 1.45-.44 1.45-1.13 0-.7-.75-1-1.59-1.19s-2-.58-2-1.64a1.76 1.76 0 0 1 2-1.65 4 4 0 0 1 2.12.66l-.3.48a3.39 3.39 0 0 0-1.84-.6c-.82 0-1.36.45-1.36 1 0 .66.81.91 1.66 1.16s2 .62 2 1.67a1.85 1.85 0 0 1-2.06 1.74 4.11 4.11 0 0 1-2.56-.82zM116.78 88.1h.71v.79h-.71zm.07 2.35h.57v6h-.57zM119.17 95.68l.34-.46a3.52 3.52 0 0 0 2.14.78c.81 0 1.45-.44 1.45-1.13 0-.7-.75-1-1.59-1.19s-2.05-.58-2.05-1.64a1.76 1.76 0 0 1 2-1.65 4 4 0 0 1 2.12.66l-.3.48a3.39 3.39 0 0 0-1.84-.6c-.82 0-1.36.45-1.36 1 0 .66.81.91 1.66 1.16s2 .62 2 1.67a1.85 1.85 0 0 1-2.06 1.74 4.11 4.11 0 0 1-2.51-.82zM128.62 93.46a3.07 3.07 0 1 1 6.14 0 3.09 3.09 0 0 1-3.08 3.13 3.06 3.06 0 0 1-3.06-3.13zm5.52 0a2.51 2.51 0 0 0-2.46-2.59 2.46 2.46 0 0 0-2.44 2.56A2.51 2.51 0 0 0 131.7 96a2.47 2.47 0 0 0 2.44-2.54zM136.53 90.45h.57v1.33a2.9 2.9 0 0 1 2.46-1.47 3 3 0 0 1 2.91 3.1 3 3 0 0 1-2.91 3.13 2.88 2.88 0 0 1-2.46-1.43v3.19h-.57zm5.32 3a2.41 2.41 0 0 0-2.34-2.58 2.5 2.5 0 0 0-2.44 2.57 2.5 2.5 0 0 0 2.44 2.56 2.34 2.34 0 0 0 2.34-2.54zM143.85 93.45a3 3 0 0 1 2.84-3.12c1.68 0 2.74 1.36 2.74 3.13a1.69 1.69 0 0 1 0 .23h-5a2.38 2.38 0 0 0 2.38 2.31 2.68 2.68 0 0 0 2.05-.94l.4.35a3.15 3.15 0 0 1-2.48 1.13 3 3 0 0 1-2.93-3.09zm5-.29a2.21 2.21 0 0 0-2.14-2.32 2.33 2.33 0 0 0-2.21 2.32zM151.11 90.45h.57v1.11a2.35 2.35 0 0 1 2.16-1.25 2.28 2.28 0 0 1 2.39 2.46v3.66h-.57v-3.56a1.82 1.82 0 0 0-1.9-2 2.05 2.05 0 0 0-2.08 2.13v3.46h-.57z"/><path class="cls-1" d="M194.82 22.27a3.09 3.09 0 0 0-2.65-1 15.43 15.43 0 0 0-4.65.95 34.13 34.13 0 0 0-10.73 5.61 18.65 18.65 0 0 1-2.26 1.52 6.38 6.38 0 0 0-1.44-3.57 5.64 5.64 0 0 0-1.69-1.39 2.87 2.87 0 0 0 .37-.58l.09-.22c.62-.21.82-1.24.45-2.35a3.21 3.21 0 0 0-.75-1.25 1.17 1.17 0 0 0-.83-.38 3.57 3.57 0 0 0-1.05-.76 14.25 14.25 0 0 1 .57-2.11 23.22 23.22 0 0 1 1.39-3.21 18.2 18.2 0 0 1 1.88-2.94 9.11 9.11 0 0 1 1.18-1.26 3.79 3.79 0 0 1 1.4-.85.29.29 0 0 0 .19-.36.27.27 0 0 0-.27-.2H176a4.27 4.27 0 0 0-1.63 1 10.1 10.1 0 0 0-1.27 1.32 19.64 19.64 0 0 0-2 3 24.06 24.06 0 0 0-1.48 3.29 17.14 17.14 0 0 0-.61 2.12h-.11a2.77 2.77 0 0 0-.76 0 19.26 19.26 0 0 0-.62-2.12 24.06 24.06 0 0 0-1.52-3.38 19.64 19.64 0 0 0-2-3 9.49 9.49 0 0 0-1.27-1.32 4.27 4.27 0 0 0-1.63-1h-.08a.29.29 0 0 0-.27.2.27.27 0 0 0 .19.35 4 4 0 0 1 1.4.86 9.11 9.11 0 0 1 1.18 1.26 18.2 18.2 0 0 1 1.88 2.94 22.08 22.08 0 0 1 1.39 3.21 16.57 16.57 0 0 1 .58 2.11 3.61 3.61 0 0 0-.95.64l-.11.12a1.17 1.17 0 0 0-.83.38 3.21 3.21 0 0 0-.75 1.25c-.37 1.11-.17 2.14.45 2.35h.05a3.06 3.06 0 0 0 .47.82 5.48 5.48 0 0 0-1.81 1.51 6.38 6.38 0 0 0-1.33 3.48 18.45 18.45 0 0 1-2.36-1.57 34.13 34.13 0 0 0-10.73-5.61 15.43 15.43 0 0 0-4.65-.95 3.12 3.12 0 0 0-2.65 1c-1 1.31 0 3.49 1.59 5 .61.59 1.28 1.13 1.88 1.61a9.68 9.68 0 0 1 1.5 1.35l.05.06a9.83 9.83 0 0 1 4.62-1.53 41.77 41.77 0 0 1 10.73 1 2.26 2.26 0 0 0 0 .37 38.87 38.87 0 0 0-8.93-.95h-1.74a9.1 9.1 0 0 0-4.52 1.52l-.27.21a3.07 3.07 0 0 0-.26.25 2.11 2.11 0 0 0-.57.9c-.24.82.24 1.67 1.43 2.53a9.27 9.27 0 0 0 11.14.14c1.33-1 2.42-1.82 3.29-2.39.27-.18.51-.33.74-.46a6.35 6.35 0 0 0 .9 1.78 5.84 5.84 0 0 0 1.09 1.13 11.15 11.15 0 0 0-1.3 1.83 12 12 0 0 0-.82 1.76c-.17.44-.31.84-.42 1.23a15 15 0 0 0-.42 2c-.06.45-.1.83-.12 1.19a.62.62 0 0 0 0 .13V43a8.3 8.3 0 0 0 .06 1.45 4.54 4.54 0 0 0 .18.55 10.9 10.9 0 0 0 .28 1.09c0 .12.09.24.13.37v.1a13 13 0 0 0 .93 2v.06l.24.41c.24.38.5.77.79 1.16a15.14 15.14 0 0 0 1.14 1.39 12.72 12.72 0 0 0 1.16 1.11 4.6 4.6 0 0 0 1.43.85 1.21 1.21 0 0 0 .43.07 1.6 1.6 0 0 0 .53-.09 3.43 3.43 0 0 0 .76-.39 8.55 8.55 0 0 0 1.25-1 16.81 16.81 0 0 0 1.61-1.85l.43-.6c.22-.34.44-.7.67-1.1a14.45 14.45 0 0 0 .85-1.73v-.15a10.07 10.07 0 0 0 .47-1.65 7.81 7.81 0 0 0 .16-1.41v-.54a14.78 14.78 0 0 0-.13-1.48 15 15 0 0 0-.4-1.86c-.13-.45-.28-.9-.45-1.36s-.32-.78-.48-1.1a10.9 10.9 0 0 0-1.64-2.48 5.66 5.66 0 0 0 1.19-1.25 6.06 6.06 0 0 0 .8-1.61c.21.12.43.25.66.41.87.57 2 1.36 3.3 2.39a9.27 9.27 0 0 0 11.14-.14c1.18-.86 1.66-1.71 1.42-2.53a2.11 2.11 0 0 0-.57-.9 3.07 3.07 0 0 0-.26-.25l-.27-.21a9.1 9.1 0 0 0-4.52-1.52h-1.74a38.82 38.82 0 0 0-8.82.92v-.36a41.67 41.67 0 0 1 10.63-1 9.72 9.72 0 0 1 4.63 1.53v-.06a9.68 9.68 0 0 1 1.5-1.35c.6-.48 1.27-1 1.89-1.61 1.65-1.52 2.69-3.7 1.68-5.01zm-24.47-1.72c.05-.32.18-.54.35-.6h.11a.8.8 0 0 1 .47.22l.06.05a2.75 2.75 0 0 1 .65 1.1A2.14 2.14 0 0 1 172 23a.47.47 0 0 1-.21.19c-.36.12-1-.41-1.29-1.36a2.61 2.61 0 0 1-.15-1.28zm-5 2.62a.47.47 0 0 1-.21-.19 2.14 2.14 0 0 1 0-1.67 2.75 2.75 0 0 1 .65-1.1l.06-.05a.66.66 0 0 1 .58-.21c.17.06.3.28.35.6a2.74 2.74 0 0 1-.15 1.26c-.31.95-.92 1.48-1.28 1.36zm9.46 18.54c.06.46.1.93.12 1.4a23.13 23.13 0 0 1-12.74-.07v-.24c0-.34.06-.7.12-1.13a21.8 21.8 0 0 0 12.5 0zm-2 7.67c-.13.2-.27.4-.41.59l-.13.16a21.51 21.51 0 0 1-3.58.31 22 22 0 0 1-3.85-.35l-.13-.17c-.28-.38-.54-.76-.77-1.13l-.18-.31a20.41 20.41 0 0 0 9.62 0c-.2.32-.38.62-.58.9zm1.54-2.9l-.05.14a22.21 22.21 0 0 1-11.48-.07.5.5 0 0 0-.05-.13v-.11l-.17-.31c-.1-.31-.18-.63-.25-1a20.88 20.88 0 0 0 12.42 0 9.8 9.8 0 0 1-.43 1.48zm.08-6.61a18.13 18.13 0 0 1-11.67-.09c.11-.38.25-.77.41-1.2a17.07 17.07 0 0 0 10.7 0h.13c.15.42.3.85.42 1.29z"/></svg>
