<svg xmlns="http://www.w3.org/2000/svg" width="133" height="37"><path fill="#da6a2d" d="M0 .6h20.6V6H6.5v9.9h13.2v5.4H6.5v15.2H0V.6zM57.6 18.1c0 12-7.3 18.9-17.1 18.9-10.1 0-16.4-7.7-16.4-18.2C24.1 7.8 31 0 41 0c10.5 0 16.6 7.9 16.6 18.1zm-26.6.6c0 7.3 3.7 13.1 9.9 13.1 6.3 0 9.9-5.9 9.9-13.4 0-6.8-3.3-13.1-9.9-13.1-6.5 0-9.9 6-9.9 13.4zM62.2.6h6.5V31h14.7v5.5H62.2V.6zM94.9.6v35.9h-6.5V.6h6.5zM133 18.1c0 12-7.3 18.9-17.1 18.9-10.1 0-16.4-7.7-16.4-18.2 0-11 6.9-18.8 17-18.8C126.8 0 133 7.9 133 18.1zm-26.7.6c0 7.3 3.7 13.1 9.9 13.1 6.3 0 9.9-5.9 9.9-13.4 0-6.8-3.3-13.1-9.9-13.1-6.4 0-9.9 6-9.9 13.4z"/></svg>
