<svg xmlns="http://www.w3.org/2000/svg" viewBox="0 0 24 24"><linearGradient gradientUnits="userSpaceOnUse" x1="12" y1="24" x2="12" y2="0"><stop offset="0" stop-color="#596066"/><stop offset="1" stop-color="#757d84"/></linearGradient><path fill="url(#a)" d="M0 0h24v24H0z"/><path d="M18 12.72v-1.44l-1.72-.36a4.168 4.168 0 0 0-.493-1.173l.96-1.48-1.013-1.013-1.48.96a4.54 4.54 0 0 0-1.174-.494L12.72 6h-1.44l-.36 1.72a4.168 4.168 0 0 0-1.173.493l-1.48-.96-1.014 1.013.96 1.48a4.607 4.607 0 0 0-.493 1.174L6 11.28v1.44l1.72.36c.107.413.267.813.493 1.173l-.96 1.48 1.013 1.013 1.48-.96c.36.213.76.387 1.173.493L11.28 18h1.44l.36-1.72a4.168 4.168 0 0 0 1.173-.493l1.48.96 1.013-1.013-.96-1.48c.213-.36.387-.76.493-1.173L18 12.72zm-6 1.253c-1.093 0-1.973-.88-1.973-1.973s.88-1.973 1.973-1.973 1.973.88 1.973 1.973-.88 1.973-1.973 1.973z" fill="#fff"/></svg>