<svg xmlns="http://www.w3.org/2000/svg" viewBox="0 0 24 24"><style></style><g id="Bookmark"><linearGradient id="SVGID_1_" gradientUnits="userSpaceOnUse" x1="12" y1=".083" x2="12" y2="24.251"><stop offset="0" stop-color="#757d85"/><stop offset="1" stop-color="#596066"/></linearGradient><path fill="url(#SVGID_1_)" d="M0 0h24v24H0z"/><path d="M17.58 7.594l-2.603-1.503a.75.75 0 0 0-.75 0L12 7.378 9.772 6.091a.75.75 0 0 0-.75 0L6.42 7.594a.75.75 0 0 0-.375.65v3.005c0 .268.143.516.375.649l2.228 1.286v2.572c0 .268.143.516.375.649l2.603 1.502a.751.751 0 0 0 .75 0l2.603-1.502a.75.75 0 0 0 .375-.649v-2.572l2.228-1.286a.75.75 0 0 0 .375-.649V8.244a.757.757 0 0 0-.377-.65zM7.545 8.677l1.853-1.07 1.853 1.07v2.139l-1.853 1.07-1.852-1.069v-2.14zM12 16.393l-1.853-1.069v-2.138L12 12.115l1.853 1.07v2.138L12 16.393zm4.455-5.577l-1.852 1.069-1.853-1.07V8.677l1.853-1.07 1.853 1.07v2.139z" fill="#fff"/></g></svg>