<svg xmlns="http://www.w3.org/2000/svg" xmlns:xlink="http://www.w3.org/1999/xlink" viewBox="0 0 24 24"><defs><style>.cls-1{fill:url(#linear-gradient);}.cls-2{fill:#fff;}</style><linearGradient id="linear-gradient" x1="12" y1="0.08" x2="12" y2="24.25" gradientUnits="userSpaceOnUse"><stop offset="0" stop-color="#757d85"/><stop offset="1" stop-color="#596066"/></linearGradient></defs><title>Preferences</title><g id="Preference"><rect class="cls-1" width="24" height="24"/><path class="cls-2" d="M18,12.72V11.28l-1.72-.36a4.46,4.46,0,0,0-.49-1.17l1-1.48-1-1-1.48,1a4.83,4.83,0,0,0-1.17-.49L12.72,6H11.28l-.36,1.72a4.46,4.46,0,0,0-1.17.49l-1.48-1-1,1,1,1.48a4.83,4.83,0,0,0-.49,1.17L6,11.28v1.44l1.72.36a4.46,4.46,0,0,0,.49,1.17l-1,1.48,1,1,1.48-1a4.83,4.83,0,0,0,1.17.49L11.28,18h1.44l.36-1.72a4.46,4.46,0,0,0,1.17-.49l1.48,1,1-1-1-1.48a4.83,4.83,0,0,0,.49-1.17ZM12,14a2,2,0,1,1,2-2A2,2,0,0,1,12,14Z"/></g></svg>